<?xml version="1.0" encoding="UTF-8" standalone="no"?>
<!-- Created with Inkscape (http://www.inkscape.org/) -->

<svg
   xmlns:dc="http://purl.org/dc/elements/1.1/"
   xmlns:cc="http://creativecommons.org/ns#"
   xmlns:rdf="http://www.w3.org/1999/02/22-rdf-syntax-ns#"
   xmlns:svg="http://www.w3.org/2000/svg"
   xmlns="http://www.w3.org/2000/svg"
   xmlns:sodipodi="http://sodipodi.sourceforge.net/DTD/sodipodi-0.dtd"
   xmlns:inkscape="http://www.inkscape.org/namespaces/inkscape"
   width="1024"
   height="1024"
   id="svg2"
   version="1.1"
   inkscape:version="0.48.5 r10040"
   sodipodi:docname="drawing.svg">
  <defs
     id="defs4" />
  <sodipodi:namedview
     id="base"
     pagecolor="#ffffff"
     bordercolor="#f0f0f0"
     borderopacity="1"
     inkscape:pageopacity="0.0"
     inkscape:pageshadow="2"
     inkscape:zoom="0.19085918"
     inkscape:cx="589.437"
     inkscape:cy="-338.27306"
     inkscape:document-units="px"
     inkscape:current-layer="layer1"
     showgrid="false"
     inkscape:showpageshadow="false"
     inkscape:window-width="1354"
     inkscape:window-height="733"
     inkscape:window-x="7"
     inkscape:window-y="3"
     inkscape:window-maximized="0" />
  <metadata
     id="metadata7">
    <rdf:RDF>
      <cc:Work
         rdf:about="">
        <dc:format>image/svg+xml</dc:format>
        <dc:type
           rdf:resource="http://purl.org/dc/dcmitype/StillImage" />
        <dc:title></dc:title>
      </cc:Work>
    </rdf:RDF>
  </metadata>
  <g
     inkscape:label="Layer 1"
     inkscape:groupmode="layer"
     id="layer1"
     transform="translate(0,-28.362183)">
    <path
       sodipodi:type="arc"
       style="fill:#1a1a1a;fill-opacity:1;fill-rule:nonzero;stroke:none"
       id="path2987"
       sodipodi:cx="445.87454"
       sodipodi:cy="329.68265"
       sodipodi:rx="47.232471"
       sodipodi:ry="57.623615"
       d="m 493.10701,329.68265 a 47.232471,57.623615 0 1 1 -94.46494,0 47.232471,57.623615 0 1 1 94.46494,0 z"
       transform="translate(522.099,216.84926)" />
    <path
       style="fill:none;stroke:#1a1a1a;stroke-width:24;stroke-linecap:round;stroke-linejoin:round;stroke-miterlimit:4;stroke-opacity:1;stroke-dasharray:none"
       d="m 943.4127,847.87509 c -21.1171,54.95255 -39.9623,111.85239 -26.4502,196.48711"
       id="path2989"
       inkscape:connector-curvature="0"
       sodipodi:nodetypes="cc" />
    <path
       sodipodi:nodetypes="cc"
       inkscape:connector-curvature="0"
       id="path3759"
       d="m 1012.5043,845.46778 c 19.0143,55.71509 35.6844,113.28976 18.9669,197.35002"
       style="fill:none;stroke:#1a1a1a;stroke-width:24;stroke-linecap:round;stroke-linejoin:round;stroke-miterlimit:4;stroke-opacity:1;stroke-dasharray:none" />
    <path
       sodipodi:nodetypes="cc"
       inkscape:connector-curvature="0"
       id="path3761"
       d="m 925.4545,646.16171 c -44.5265,21.70677 -91.491,83.8746 -102.3578,146.35682"
       style="fill:none;stroke:#1a1a1a;stroke-width:24;stroke-linecap:round;stroke-linejoin:round;stroke-miterlimit:4;stroke-opacity:1;stroke-dasharray:none" />
    <path
       style="fill:none;stroke:#1a1a1a;stroke-width:24;stroke-linecap:round;stroke-linejoin:round;stroke-miterlimit:4;stroke-opacity:1;stroke-dasharray:none"
       d="m 1020.9755,647.10726 c 46.2443,17.7554 98.4334,75.60696 114.6887,136.90852"
       id="path3763"
       inkscape:connector-curvature="0"
       sodipodi:nodetypes="cc" />
    <path
       style="fill:#1a1a1a;stroke:none"
       d="m 918.8518,643.83081 36.8413,-21.72694 0.3543,-31.76383 29.0479,-3.07011 -3.4243,36.25092 48.6494,22.19926 -5.6679,145.47601 0,69.90406 -90.6863,-3.77859 -1.8893,-64.23616 z"
       id="path3765"
       inkscape:connector-curvature="0"
       sodipodi:nodetypes="ccccccccccc" />
    <path
       style="fill:#ffccaa;stroke:none"
       d="m 608.01745,1510.8245 -13.90932,13.0345 6.02758,-17.3555 z"
       id="path4088"
       inkscape:connector-curvature="0" />
    <path
       sodipodi:nodetypes="cc"
       inkscape:connector-curvature="0"
       id="path4090"
       d="m 84.0068,1481.4582 c -110.6383,5.0376 -90.9947,185.4825 -187.8737,209.1681"
       style="fill:none;stroke:#d45500;stroke-width:24;stroke-linecap:round;stroke-linejoin:round;stroke-miterlimit:4;stroke-opacity:1;stroke-dasharray:none" />
    <path
       style="fill:#803300;stroke:none"
       d="m 448.8245,1546.463 c -52.006,29.8087 -85.337,106.2068 -86.4166,150.093 21.4064,8.147 41.5049,16.8171 35.8062,35.8062 l -71.6123,0 c -6.5161,-33.5696 -13.7889,-82.6346 12,-137.7408 z"
       id="path4092"
       inkscape:connector-curvature="0"
       sodipodi:nodetypes="cccccc" />
    <path
       style="fill:#803300;stroke:none"
       d="m 197.2172,1608.9438 c -9.6828,20.2106 -35.953,48.8 -51.8561,57.2686 l 15.2531,40.0982 c 18.6329,2.5835 40.9641,2.2084 33.0223,26.0516 l -68.354,0 -35.4837,-85.9347 c 34.1802,-50.6218 43.5334,-58.6163 53.7092,-117.1275 z"
       id="path4094"
       inkscape:connector-curvature="0"
       sodipodi:nodetypes="cccccccc" />
    <path
       sodipodi:nodetypes="cccccccccccccccccccc"
       inkscape:connector-curvature="0"
       id="path4096"
       d="m 633.69825,1488.265 c -5.27876,13.7246 -18.73136,20.3807 -26.87695,24.0981 l -30.84638,-18.0342 c -6.7951,0.153 -11.50041,8.036 -4.66561,15.004 l 30.85359,10.5745 c 1.5221,10.65 -5.7214,17.2472 -17.3368,18.2777 l -73.8547,-2.0893 c -52.006,29.8087 -89.4839,116.574 -90.5635,160.4602 21.4064,8.147 41.5049,16.8171 35.8062,35.8062 l -71.6123,0 c -6.5161,-33.5696 -13.7889,-82.6346 12,-137.7408 -98.1332,65.1567 -171.5992,20.9732 -261.3846,14.3224 -9.6828,20.2106 -35.953,48.8 -51.8561,57.2686 l 15.2531,40.0982 c 18.6329,2.5835 40.9641,2.2084 33.0223,26.0516 l -68.354,0 -35.4837,-85.9347 C 61.979,1595.8057 71.3322,1527.8112 81.508,1469.3 c 153.5357,-0.042 293.473,-8.9552 438.2031,-79.9169 76.33184,13.2159 91.64419,45.8096 113.98715,98.8819 z"
       style="fill:#d45500;stroke:none" />
    <path
       sodipodi:nodetypes="cccc"
       inkscape:connector-curvature="0"
       id="path4098"
       d="m 595.55747,1448.4854 -23.33708,-3.2984 17.38532,13.6195 c 3.53242,-1.7663 5.62322,-5.5468 5.95176,-10.3211 z"
       style="fill:#ffffff;stroke:none" />
    <path
       style="fill:#ffccaa;stroke:none"
       d="m 396.6018,1594.6214 c -96.64263,74.1001 -189.48603,26.9355 -261.3846,14.3224 163.33014,14.1892 234.66325,-37.5341 261.3846,-14.3224 z"
       id="path4100"
       inkscape:connector-curvature="0"
       sodipodi:nodetypes="ccc" />
    <path
       style="fill:#552200;stroke:none"
       d="m 423.8125,1428.0497 c -8.76145,2.8103 -17.5209,5.4271 -26.28125,7.875 l 13.875,28.7187 4.46875,58.125 -10.4375,29.8126 35.78125,-61.0938 -17.40625,-63.4375 z m -33.28125,9.8125 c -10.68008,2.8711 -21.36694,5.4617 -32.0625,7.8438 l 18.65625,35.3437 0,35.7813 -3,37.25 23.84375,-59.625 -7.4375,-37.25 0,-19.3438 z m -40.4375,9.6562 c -8.75863,1.8508 -17.53162,3.5675 -26.3125,5.125 l 13.09375,70.125 -11.9375,40.25 28.3125,-67.0624 -3.15625,-48.4376 z m -32.15625,6.125 c -8.5814,1.461 -17.16904,2.8223 -25.78125,4.0313 l 0,65.0937 -10.4375,44.7188 31.3125,-77.5 4.90625,-36.3438 z m -31.09375,4.75 c -16.47192,2.2169 -32.99361,4.0049 -49.625,5.4376 l 1.28125,114.0937 48.34375,-119.5313 z m -54.90625,5.875 c -11.00667,0.8983 -22.0578,1.6306 -33.15625,2.25 l 2.4375,112.9063 30.71875,-115.1563 z m -42.6875,2.75 c -7.03162,0.3464 -14.08112,0.6514 -21.15625,0.9063 -4.71175,29.9977 -17.31189,110.2783 -16.0625,104.0313 1.06984,-5.3492 24.12923,-68.9663 37.21875,-104.9376 z m -30,1.1876 c -11.10434,0.3446 -22.27268,0.6133 -33.5,0.7812 L 89.4375,1591.331 159.25,1468.206 z"
       id="path4102"
       inkscape:connector-curvature="0" />
    <path
       sodipodi:nodetypes="cccccccccccccccccccccc"
       inkscape:connector-curvature="0"
       id="path4106"
       d="m 521.43481,1437.1068 -20.65088,15.4882 18.06952,-2.5813 -15.48816,21.9415 16.77884,-5.1627 -14.19748,23.2322 20.65089,-5.1627 -18.06953,28.395 19.36021,-9.0348 -11.61613,20.6509 16.77885,-2.5814 -6.4534,29.6857 16.77884,-12.9069 -3.87204,19.3603 14.19748,-12.9068 2.58136,14.1975 16.77884,-16.7789 2.58136,11.6162 18.06953,-18.0696 -49.04585,-7.7441 -19.3602,-52.9178 z"
       style="fill:#ffccaa;stroke:none" />
    <path
       transform="matrix(0.92713448,0.37472878,-0.37472878,0.92713448,-656.85179,-373.15034)"
       d="m 1777.9873,1213.0178 a 26.218605,20.730989 0 1 1 -52.4372,0 26.218605,20.730989 0 1 1 52.4372,0 z"
       sodipodi:ry="20.730989"
       sodipodi:rx="26.218605"
       sodipodi:cy="1213.0178"
       sodipodi:cx="1751.7687"
       id="path4108"
       style="fill:#d45500;fill-opacity:1;fill-rule:nonzero;stroke:none"
       sodipodi:type="arc" />
    <path
       inkscape:connector-curvature="0"
       id="path4110"
       d="m 509.84192,1394.8132 c -5.39548,0.1166 -10.0854,2.7285 -11.875,7.1562 -2.37469,5.8754 1.17825,12.9283 8,16.625 4.11914,-7.8909 11.92514,-13.3272 21,-13.7187 -1.69416,-3.5942 -5.04316,-6.811 -9.53125,-8.625 -2.54536,-1.0288 -5.14126,-1.4905 -7.59375,-1.4375 z"
       style="fill:#aa4400;fill-opacity:1;fill-rule:nonzero;stroke:none" />
    <path
       inkscape:connector-curvature="0"
       id="path4112"
       d="m 604.11267,1509.9303 -13.90932,13.0344 6.02758,-17.3555 z"
       style="fill:#ffe6d5;stroke:none" />
    <path
       style="fill:#552200;fill-opacity:1;fill-rule:nonzero;stroke:none"
       d="m 621.2953,1487.7719 c -2.78584,5.4244 -5.52558,14.2819 -4.3578,19.3091 6.57392,-4.0783 13.35322,-9.981 16.75,-18.8126 -1.34644,-0.436 -8.48643,-1.0974 -12.3922,-0.4965 z"
       id="path4114"
       inkscape:connector-curvature="0"
       sodipodi:nodetypes="cccc" />
    <path
       inkscape:connector-curvature="0"
       id="path4119"
       d="m 608.01745,830.8245 -13.90932,13.0345 6.02758,-17.3555 z"
       style="fill:#ffccaa;stroke:none" />
    <path
       style="fill:none;stroke:#d45500;stroke-width:24;stroke-linecap:round;stroke-linejoin:round;stroke-miterlimit:4;stroke-opacity:1;stroke-dasharray:none"
       d="m 84.0068,801.4582 c -110.6383,5.0376 -90.9947,185.4825 -187.8737,209.1681"
       id="path4121"
       inkscape:connector-curvature="0"
       sodipodi:nodetypes="cc" />
    <path
       sodipodi:nodetypes="cccccc"
       inkscape:connector-curvature="0"
       id="path4123"
       d="m 448.8245,866.463 c -52.006,29.8087 -85.337,106.2068 -86.4166,150.093 21.4064,8.147 41.5049,16.8171 35.8062,35.8062 l -71.6123,0 c -6.5161,-33.5696 -13.7889,-82.6346 12,-137.7408 z"
       style="fill:#803300;stroke:none" />
    <path
       sodipodi:nodetypes="cccccccc"
       inkscape:connector-curvature="0"
       id="path4125"
       d="m 197.2172,928.9438 c -9.6828,20.2106 -35.953,48.8 -51.8561,57.2686 l 15.2531,40.0982 c 18.6329,2.5835 40.9641,2.2084 33.0223,26.0516 l -68.354,0 -35.4837,-85.9347 C 123.979,915.8057 133.3322,907.8112 143.508,849.3 z"
       style="fill:#803300;stroke:none" />
    <path
       style="fill:#d45500;stroke:none"
       d="m 633.69825,808.265 c -5.27876,13.7246 -18.73136,20.3807 -26.87695,24.0981 l -30.84638,-18.0342 c -6.7951,0.153 -11.50041,8.036 -4.66561,15.004 l 30.85359,10.5745 c 1.5221,10.65 -5.7214,17.2472 -17.3368,18.2777 l -73.8547,-2.0893 c -52.006,29.8087 -89.4839,116.574 -90.5635,160.4602 21.4064,8.147 41.5049,16.8171 35.8062,35.8062 l -71.6123,0 c -6.5161,-33.5696 -13.7889,-82.6346 12,-137.7408 -98.1332,65.1567 -171.5992,20.9732 -261.3846,14.3224 -9.6828,20.2106 -35.953,48.8 -51.8561,57.2686 l 15.2531,40.0982 c 18.6329,2.5835 40.9641,2.2084 33.0223,26.0516 l -68.354,0 -35.4837,-85.9347 C 61.979,915.8057 71.3322,847.8112 81.508,789.3 c 153.5357,-0.042 293.473,-8.9552 438.2031,-79.9169 76.33184,13.2159 91.64419,45.8096 113.98715,98.8819 z"
       id="path4127"
       inkscape:connector-curvature="0"
       sodipodi:nodetypes="cccccccccccccccccccc" />
    <path
       style="fill:#ffffff;stroke:none"
       d="m 595.55747,768.4854 -23.33708,-3.2984 17.38532,13.6195 c 3.53242,-1.7663 5.62322,-5.5468 5.95176,-10.3211 z"
       id="path4129"
       inkscape:connector-curvature="0"
       sodipodi:nodetypes="cccc" />
    <path
       sodipodi:nodetypes="ccc"
       inkscape:connector-curvature="0"
       id="path4131"
       d="m 396.6018,914.6214 c -96.64263,74.1001 -189.48603,26.9355 -261.3846,14.3224 163.33014,14.1892 234.66325,-37.5341 261.3846,-14.3224 z"
       style="fill:#ffccaa;stroke:none" />
    <path
       inkscape:connector-curvature="0"
       id="path4133"
       d="m 423.8125,748.0497 c -8.76145,2.8103 -17.5209,5.4271 -26.28125,7.875 l 13.875,28.7187 4.46875,58.125 -10.4375,29.8126 35.78125,-61.0938 -17.40625,-63.4375 z m -33.28125,9.8125 c -10.68008,2.8711 -21.36694,5.4617 -32.0625,7.8438 l 18.65625,35.3437 0,35.7813 -3,37.25 23.84375,-59.625 -7.4375,-37.25 0,-19.3438 z m -40.4375,9.6562 c -8.75863,1.8508 -17.53162,3.5675 -26.3125,5.125 l 13.09375,70.125 -11.9375,40.25 28.3125,-67.0624 -3.15625,-48.4376 z m -32.15625,6.125 c -8.5814,1.461 -17.16904,2.8223 -25.78125,4.0313 l 0,65.0937 -10.4375,44.7188 31.3125,-77.5 4.90625,-36.3438 z m -31.09375,4.75 c -16.47192,2.2169 -32.99361,4.0049 -49.625,5.4376 L 238.5,897.9247 286.84375,778.3934 z m -54.90625,5.875 c -11.00667,0.8983 -22.0578,1.6306 -33.15625,2.25 l 2.4375,112.9063 30.71875,-115.1563 z m -42.6875,2.75 c -7.03162,0.3464 -14.08112,0.6514 -21.15625,0.9063 -4.71175,29.9977 -17.31189,110.2783 -16.0625,104.0313 1.06984,-5.3492 24.12923,-68.9663 37.21875,-104.9376 z m -30,1.1876 c -11.10434,0.3446 -22.27268,0.6133 -33.5,0.7812 L 89.4375,911.331 159.25,788.206 z"
       style="fill:#552200;stroke:none" />
    <path
       style="fill:#ffccaa;stroke:none"
       d="m 521.43481,757.1068 -20.65088,15.4882 18.06952,-2.5813 -15.48816,21.9415 16.77884,-5.1627 -14.19748,23.2322 20.65089,-5.1627 -18.06953,28.395 19.36021,-9.0348 -11.61613,20.6509 16.77885,-2.5814 -6.4534,29.6857 16.77884,-12.9069 -3.87204,19.3603 14.19748,-12.9068 2.58136,14.1975 16.77884,-16.7789 2.58136,11.6162 18.06953,-18.0696 -49.04585,-7.7441 -19.3602,-52.9178 z"
       id="path4135"
       inkscape:connector-curvature="0"
       sodipodi:nodetypes="cccccccccccccccccccccc" />
    <path
       sodipodi:type="arc"
       style="fill:#d45500;fill-opacity:1;fill-rule:nonzero;stroke:none"
       id="path4137"
       sodipodi:cx="1751.7687"
       sodipodi:cy="1213.0178"
       sodipodi:rx="26.218605"
       sodipodi:ry="20.730989"
       d="m 1777.9873,1213.0178 a 26.218605,20.730989 0 1 1 -52.4372,0 26.218605,20.730989 0 1 1 52.4372,0 z"
       transform="matrix(0.92713448,0.37472878,-0.37472878,0.92713448,-656.85179,-1053.1503)" />
    <path
       style="fill:#aa4400;fill-opacity:1;fill-rule:nonzero;stroke:none"
       d="m 509.84192,714.8132 c -5.39548,0.1166 -10.0854,2.7285 -11.875,7.1562 -2.37469,5.8754 1.17825,12.9283 8,16.625 4.11914,-7.8909 11.92514,-13.3272 21,-13.7187 -1.69416,-3.5942 -5.04316,-6.811 -9.53125,-8.625 -2.54536,-1.0288 -5.14126,-1.4905 -7.59375,-1.4375 z"
       id="path4139"
       inkscape:connector-curvature="0" />
    <path
       style="fill:#ffe6d5;stroke:none"
       d="m 604.11267,829.9303 -13.90932,13.0344 6.02758,-17.3555 z"
       id="path4141"
       inkscape:connector-curvature="0" />
    <path
       sodipodi:nodetypes="cccc"
       inkscape:connector-curvature="0"
       id="path4143"
       d="m 621.2953,807.7719 c -2.78584,5.4244 -5.52558,14.2819 -4.3578,19.3091 6.57392,-4.0783 13.35322,-9.981 16.75,-18.8126 -1.34644,-0.436 -8.48643,-1.0974 -12.3922,-0.4965 z"
       style="fill:#552200;fill-opacity:1;fill-rule:nonzero;stroke:none" />
    <path
       style="fill:#ffccaa;stroke:none"
       d="m 1348.1579,812.40718 12.7771,14.1461 -4.5633,-17.7967 z"
       id="path4145"
       inkscape:connector-curvature="0" />
    <path
       sodipodi:nodetypes="cc"
       inkscape:connector-curvature="0"
       id="path4147"
       d="m 1927.5752,843.01218 c -19.0143,55.7151 -35.6844,113.2898 -18.9669,197.35002"
       style="fill:none;stroke:#d45500;stroke-width:24;stroke-linecap:round;stroke-linejoin:round;stroke-miterlimit:4;stroke-opacity:1;stroke-dasharray:none" />
    <path
       style="fill:none;stroke:#aa4400;stroke-width:24;stroke-linecap:round;stroke-linejoin:round;stroke-miterlimit:4;stroke-opacity:1;stroke-dasharray:none"
       d="m 1885.8393,843.01218 c -19.0143,55.7151 -35.6844,113.2898 -18.9669,197.35002"
       id="path4149"
       inkscape:connector-curvature="0"
       sodipodi:nodetypes="cc" />
    <path
       style="fill:none;stroke:#d45500;stroke-width:24;stroke-linecap:round;stroke-linejoin:round;stroke-miterlimit:4;stroke-opacity:1;stroke-dasharray:none"
       d="m 1589.8386,843.01218 c -19.0143,55.7151 -35.6844,113.2898 -18.9669,197.35002"
       id="path4151"
       inkscape:connector-curvature="0"
       sodipodi:nodetypes="cc" />
    <path
       sodipodi:nodetypes="cc"
       inkscape:connector-curvature="0"
       id="path4153"
       d="m 1548.1025,843.01218 c -19.0143,55.7151 -35.6844,113.2898 -18.9669,197.35002"
       style="fill:none;stroke:#aa4400;stroke-width:24;stroke-linecap:round;stroke-linejoin:round;stroke-miterlimit:4;stroke-opacity:1;stroke-dasharray:none" />
    <path
       sodipodi:nodetypes="cscccccccc"
       inkscape:connector-curvature="0"
       id="path4155"
       d="m 1426.4442,830.23058 c 38.1832,46.2438 126.8493,107.5929 272.3569,107.5929 145.5077,0 263.465,-58.1239 263.465,-129.8233 -56.2426,-85.8029 -414.8032,-58.5017 -506.853,-125.835 -69.9181,7.7214 -108.7236,50.5981 -131.9943,105.8369 4.7544,15.1001 17.6481,20.7354 25.5021,26.6556 11.2611,-2.9771 27.7677,-12.0215 35.285,-11.2315 3.7681,0.4154 6.3116,8.4588 3.664,13.8014 -12.6795,0.8443 -35.004,0.2565 -26.0735,12.5932 9.0832,12.7604 41.6691,4.2785 64.6478,0.4098 z"
       style="fill:#d45500;stroke:none" />
    <path
       sodipodi:nodetypes="cc"
       inkscape:connector-curvature="0"
       id="path4157"
       d="m 1954.8672,808.77078 c 110.6383,5.0376 90.9947,185.48252 187.8737,209.16812"
       style="fill:none;stroke:#d45500;stroke-width:24;stroke-linecap:round;stroke-linejoin:round;stroke-miterlimit:4;stroke-opacity:1;stroke-dasharray:none" />
    <path
       transform="matrix(-0.72628125,0,0,0.72628125,2738.0798,-172.19071)"
       d="m 1880.2353,1256.3887 a 13.365581,13.365581 0 1 1 -26.7311,0 13.365581,13.365581 0 1 1 26.7311,0 z"
       sodipodi:ry="13.365581"
       sodipodi:rx="13.365581"
       sodipodi:cy="1256.3887"
       sodipodi:cx="1866.8698"
       id="path4159"
       style="fill:#ffffff;fill-opacity:1;fill-rule:nonzero;stroke:none"
       sodipodi:type="arc" />
    <path
       sodipodi:nodetypes="cccc"
       inkscape:connector-curvature="0"
       id="path4161"
       d="m 1337.129,785.26068 c 4.2017,7.2163 7.0072,15.7349 3.8014,23.9348 -6.8104,-4.6482 -14.1566,-10.5688 -17.5,-21.1875 3.8036,-2.9405 10.3763,-2.7098 13.6986,-2.7473 z"
       style="fill:#552200;stroke:none" />
    <path
       transform="matrix(-0.92713448,0.37472878,0.37472878,0.92713448,2632.557,-1082.9499)"
       d="m 1777.9873,1213.0178 a 26.218605,20.730989 0 1 1 -52.4372,0 26.218605,20.730989 0 1 1 52.4372,0 z"
       sodipodi:ry="20.730989"
       sodipodi:rx="26.218605"
       sodipodi:cy="1213.0178"
       sodipodi:cx="1751.7687"
       id="path4163"
       style="fill:#d45500;fill-opacity:1;fill-rule:nonzero;stroke:none"
       sodipodi:type="arc" />
    <path
       id="path4165"
       d="m 1520.1491,708.66428 c 7.6033,1.9314 15.5584,3.7436 23.8438,5.4374 l -33.2188,85.2188 9.375,-90.6562 z m 32.1563,7.0937 c 10.5313,2.016 21.5129,3.852 32.8437,5.5937 l -32.8437,103.25 0,-108.8437 z m 39.6875,6.625 c 14.0241,2.0749 28.545,3.994 43.3438,5.8125 l -30.6563,118.0625 -12.6875,-123.875 z m 49.75,6.5937 c 15.3974,1.8559 31.075,3.6462 46.8125,5.4063 l -40.5313,142.5937 -6.2812,-148 z m 53.8438,6.1876 c 7.8134,0.8728 15.6365,1.7406 23.4374,2.625 l -29.4374,144.5937 6,-147.2187 z m 44.4062,5.0624 c 12.0723,1.4207 24.021,2.8859 35.7812,4.4376 l -6.7187,139.5312 -29.0625,-143.9688 z m 49.5,6.3126 c 16.2299,2.274 31.9815,4.7074 46.9688,7.4687 l -16.8438,124.7813 -30.125,-132.25 z m 56.75,9.3437 c 12.6725,2.5067 24.7065,5.2657 35.9688,8.3125 -7.9335,34.4427 -21.1952,92.3078 -24.25,107.6562 0.6008,-15.882 -6.5902,-75.7386 -11.7188,-115.9687 z m 11.7188,115.9687 c -0.058,1.5364 -0.1921,2.67 -0.4063,3.3126 -0.4722,1.4165 -0.2563,0.017 0.4063,-3.3126 z m 47.4062,-100.5624 c 8.3156,2.9211 15.9995,6.0897 22.9375,9.5312 l -20.1875,63.6562 -2.75,-73.1874 z"
       style="fill:#803300;stroke:none"
       inkscape:connector-curvature="0" />
    <path
       sodipodi:type="arc"
       style="fill:#aa4400;fill-opacity:1;fill-rule:nonzero;stroke:none"
       id="path4167"
       sodipodi:cx="1751.7687"
       sodipodi:cy="1213.0178"
       sodipodi:rx="26.218605"
       sodipodi:ry="20.730989"
       d="m 1777.9873,1213.0178 a 26.218605,20.730989 0 1 1 -52.4372,0 26.218605,20.730989 0 1 1 52.4372,0 z"
       transform="matrix(-0.56250412,0.22735265,0.22735265,0.56250412,2172.5789,-382.47796)" />
    <path
       sodipodi:type="arc"
       style="fill:#2b1100;fill-opacity:1;fill-rule:nonzero;stroke:none"
       id="path4169"
       sodipodi:cx="1866.8698"
       sodipodi:cy="1256.3887"
       sodipodi:rx="13.365581"
       sodipodi:ry="13.365581"
       d="m 1880.2353,1256.3887 a 13.365581,13.365581 0 1 1 -26.7311,0 13.365581,13.365581 0 1 1 26.7311,0 z"
       transform="matrix(-0.38829512,0,0,0.38829512,2103.1037,252.45124)" />
    <path
       sodipodi:nodetypes="cccccccccccccccc"
       inkscape:connector-curvature="0"
       id="path4171"
       d="m 1458.5884,746.69648 19.1656,30.1174 -20.0783,-10.9517 9.1265,31.03 -18.253,-9.1265 10.0392,37.4186 -22.8163,-18.2529 8.2139,29.2047 -15.5151,-10.0391 -0.9126,21.9035 -16.4277,-10.0391 -15.515,13.6897 -9.1265,-11.8644 -10.9518,11.8644 -0.9126,-17.3403 c 32.3714,6.976 56.4571,-14.9248 83.9637,-87.6143 z"
       style="fill:#ffb380;stroke:none" />
    <path
       inkscape:connector-curvature="0"
       id="path4173"
       d="m 1354.5464,812.40718 12.7771,14.1461 -4.5633,-17.7967 z"
       style="fill:#ffe6d5;stroke:none" />
    <path
       inkscape:connector-curvature="0"
       id="path4192"
       d="m -251.98255,1510.8245 -13.90932,13.0345 6.02758,-17.3555 z"
       style="fill:#1a1a1a;stroke:none" />
    <path
       style="fill:none;stroke:#1a1a1a;stroke-width:24;stroke-linecap:round;stroke-linejoin:round;stroke-miterlimit:4;stroke-opacity:1;stroke-dasharray:none"
       d="m -775.9932,1481.4582 c -110.6383,5.0376 -90.9947,185.4825 -187.8737,209.1681"
       id="path4194"
       inkscape:connector-curvature="0"
       sodipodi:nodetypes="cc" />
    <path
       sodipodi:nodetypes="cccccc"
       inkscape:connector-curvature="0"
       id="path4196"
       d="m -411.1755,1546.463 c -52.006,29.8087 -85.337,106.2068 -86.4166,150.093 21.4064,8.147 41.5049,16.8171 35.8062,35.8062 l -71.6123,0 c -6.5161,-33.5696 -13.7889,-82.6346 12,-137.7408 z"
       style="fill:#1a1a1a;stroke:none" />
    <path
       sodipodi:nodetypes="cccccccc"
       inkscape:connector-curvature="0"
       id="path4198"
       d="m -662.7828,1608.9438 c -9.6828,20.2106 -35.953,48.8 -51.8561,57.2686 l 15.2531,40.0982 c 18.6329,2.5835 40.9641,2.2084 33.0223,26.0516 l -68.354,0 -35.4837,-85.9347 c 34.1802,-50.6218 43.5334,-58.6163 53.7092,-117.1275 z"
       style="fill:#1a1a1a;stroke:none" />
    <path
       style="fill:#1a1a1a;stroke:none"
       d="m -226.30175,1488.265 c -5.27876,13.7246 -18.73136,20.3807 -26.87695,24.0981 l -30.84638,-18.0342 c -6.7951,0.153 -11.50041,8.036 -4.66561,15.004 l 30.85359,10.5745 c 1.5221,10.65 -5.7214,17.2472 -17.3368,18.2777 l -73.8547,-2.0893 c -52.006,29.8087 -89.4839,116.574 -90.5635,160.4602 21.4064,8.147 41.5049,16.8171 35.8062,35.8062 l -71.6123,0 c -6.5161,-33.5696 -13.7889,-82.6346 12,-137.7408 -98.1332,65.1567 -171.5992,20.9732 -261.3846,14.3224 -9.6828,20.2106 -35.953,48.8 -51.8561,57.2686 l 15.2531,40.0982 c 18.6329,2.5835 40.9641,2.2084 33.0223,26.0516 l -68.354,0 -35.4837,-85.9347 c 34.1802,-50.6218 43.5334,-118.6163 53.7092,-177.1275 153.5357,-0.042 293.473,-8.9552 438.2031,-79.9169 76.33184,13.2159 91.64419,45.8096 113.98715,98.8819 z"
       id="path4200"
       inkscape:connector-curvature="0"
       sodipodi:nodetypes="cccccccccccccccccccc" />
    <path
       style="fill:#ffffff;stroke:none"
       d="m -264.44253,1448.4854 -23.33708,-3.2984 17.38532,13.6195 c 3.53242,-1.7663 5.62322,-5.5468 5.95176,-10.3211 z"
       id="path4202"
       inkscape:connector-curvature="0"
       sodipodi:nodetypes="cccc" />
    <path
       style="fill:#1a1a1a;stroke:none"
       d="m -338.56519,1437.1068 -20.65088,15.4882 18.06952,-2.5813 -15.48816,21.9415 16.77884,-5.1627 -14.19748,23.2322 20.65089,-5.1627 -18.06953,28.395 19.36021,-9.0348 -11.61613,20.6509 16.77885,-2.5814 -6.4534,29.6857 16.77884,-12.9069 -3.87204,19.3603 14.19748,-12.9068 2.58136,14.1975 16.77884,-16.7789 2.58136,11.6162 18.06953,-18.0696 -49.04585,-7.7441 -19.3602,-52.9178 z"
       id="path4208"
       inkscape:connector-curvature="0"
       sodipodi:nodetypes="cccccccccccccccccccccc" />
    <path
       sodipodi:type="arc"
       style="fill:#1a1a1a;fill-opacity:1;fill-rule:nonzero;stroke:none"
       id="path4210"
       sodipodi:cx="1751.7687"
       sodipodi:cy="1213.0178"
       sodipodi:rx="26.218605"
       sodipodi:ry="20.730989"
       d="m 1777.9873,1213.0178 a 26.218605,20.730989 0 1 1 -52.4372,0 26.218605,20.730989 0 1 1 52.4372,0 z"
       transform="matrix(0.92713448,0.37472878,-0.37472878,0.92713448,-1516.8518,-373.15034)" />
    <path
       style="fill:#1a1a1a;stroke:none"
       d="m -255.88733,1509.9303 -13.90932,13.0344 6.02758,-17.3555 z"
       id="path4214"
       inkscape:connector-curvature="0" />
  </g>
</svg>
